<svg xmlns="http://www.w3.org/2000/svg" viewBox="0 0 64 64" role="img" aria-label="WhatsApp">
  <path fill="#ffffff" d="M32.02 5.5c-14.7 0-26.66 11.83-26.66 26.37 0 4.64 1.24 9.18 3.58 13.16L5.14 58.5l13.86-3.6a26.86 26.86 0 0 0 13.02 3.33c14.7 0 26.66-11.83 26.66-26.36S46.72 5.5 32.02 5.5Zm0 47.76c-4.13 0-8.16-1.17-11.65-3.38l-.84-.53-8.23 2.14 2.2-7.87-.56-.86a20.99 20.99 0 0 1-3.6-11.78c0-11.8 9.72-21.4 21.67-21.4s21.68 9.6 21.68 21.4-9.72 21.4-21.67 21.4Zm11.88-16.02c-.65-.32-3.84-1.88-4.43-2.09-.6-.22-1.03-.32-1.46.32-.43.65-1.68 2.09-2.06 2.52-.38.43-.76.48-1.41.16-.65-.32-2.74-1-5.21-3.17-1.92-1.7-3.22-3.8-3.6-4.45-.38-.64-.04-.99.29-1.31.29-.28.65-.75.98-1.13.32-.38.43-.65.65-1.08.21-.43.1-.8-.05-1.13-.16-.32-1.46-3.48-2-4.77-.53-1.26-1.07-1.09-1.46-1.11h-1.24c-.43 0-1.14.16-1.73.8-.6.65-2.27 2.2-2.27 5.36s2.32 6.22 2.65 6.65c.32.43 4.57 6.9 11.06 9.68 1.55.66 2.75 1.06 3.69 1.36 1.55.49 2.96.42 4.08.25 1.24-.18 3.84-1.55 4.38-3.06.54-1.5.54-2.79.38-3.06-.16-.26-.6-.42-1.25-.75Z"/>
</svg>
