<svg xmlns="http://www.w3.org/2000/svg" viewBox="0 0 64 64" role="img" aria-label="WhatsApp">
  <circle cx="32" cy="32" r="30" fill="#25D366"/>
  <path fill="#ffffff" d="M32.02 10.5c-12.03 0-21.82 9.69-21.82 21.6 0 3.8 1.02 7.51 2.93 10.77L10 53.9l11.35-2.95a21.99 21.99 0 0 0 10.67 2.72c12.03 0 21.82-9.69 21.82-21.58 0-11.91-9.79-21.6-21.82-21.6Zm0 38.93c-3.38 0-6.68-.95-9.54-2.76l-.69-.44-6.73 1.75 1.8-6.43-.46-.7a17.17 17.17 0 0 1-2.95-9.64c0-9.66 7.95-17.51 17.74-17.51s17.75 7.85 17.75 17.51-7.96 17.51-17.75 17.51Zm9.72-13.1c-.53-.26-3.14-1.54-3.62-1.71-.49-.18-.84-.26-1.2.26-.35.53-1.37 1.71-1.68 2.06-.31.35-.62.39-1.15.13-.53-.26-2.24-.82-4.27-2.59-1.57-1.39-2.63-3.11-2.94-3.64-.31-.52-.03-.81.24-1.07.24-.23.53-.61.8-.92.26-.31.35-.53.53-.88.17-.35.08-.65-.04-.92-.13-.26-1.2-2.85-1.64-3.9-.43-1.03-.88-.89-1.2-.91h-1.01c-.35 0-.93.13-1.42.65-.49.53-1.86 1.8-1.86 4.39s1.9 5.09 2.17 5.44c.26.35 3.74 5.64 9.06 7.92 1.27.54 2.25.87 3.02 1.11 1.27.4 2.42.34 3.34.2 1.01-.15 3.14-1.27 3.58-2.5.44-1.23.44-2.28.31-2.5-.13-.21-.49-.34-1.02-.61Z"/>
</svg>
